<?xml version="1.0" encoding="UTF-8"?>
<!DOCTYPE svg PUBLIC "-//W3C//DTD SVG 1.1//EN" "http://www.w3.org/Graphics/SVG/1.1/DTD/svg11.dtd">
<!-- Creator: CorelDRAW X7 -->
<svg xmlns="http://www.w3.org/2000/svg" xml:space="preserve" width="2593px" height="2593px" version="1.1" style="shape-rendering:geometricPrecision; text-rendering:geometricPrecision; image-rendering:optimizeQuality; fill-rule:evenodd; clip-rule:evenodd"
viewBox="0 0 1811 1811"
 xmlns:xlink="http://www.w3.org/1999/xlink">
 <defs>
  <style type="text/css">
   <![CDATA[
    .fil2 {fill:black}
    .fil0 {fill:black;fill-rule:nonzero}
    .fil1 {fill:black;fill-rule:nonzero}
   ]]>
  </style>
 </defs>
 <g id="Layer_x0020_1">
  <metadata id="CorelCorpID_0Corel-Layer"/>
  <path class="fil0" d="M460 0l891 0c126,0 241,52 324,135 84,83 136,198 136,325l0 891c0,126 -52,241 -136,324 -83,84 -198,136 -324,136l-891 0c-127,0 -242,-52 -325,-136 -83,-83 -135,-198 -135,-324l0 -891c0,-127 52,-242 135,-325 83,-83 198,-135 325,-135zm891 12l-891 0c-123,0 -235,51 -316,132 -81,81 -132,193 -132,316l0 891c0,123 51,235 132,316 81,81 193,131 316,131l891 0c123,0 235,-50 316,-131 81,-81 131,-193 131,-316l0 -891c0,-123 -50,-235 -131,-316 -81,-81 -193,-132 -316,-132z"/>
  <path id="path26" class="fil1" d="M993 925c7,3 12,9 12,15 0,9 -7,15 -18,15 -12,0 -17,-11 -19,-15l-2 -3 -22 0 0 0 -20 0c-6,9 -18,18 -31,18 -24,0 -36,-19 -37,-37l97 0 0 -4c0,-8 0,-15 -2,-22 3,9 9,18 22,24 5,2 12,6 20,9l0 0zm-101 -58c19,0 30,13 32,28l-66 0c4,-15 16,-28 34,-28l0 0zm195 0l0 -25 -21 0 0 -30 -25 0 0 30 -51 0c-24,0 -41,16 -41,38 0,2 0,5 1,7 -9,-28 -29,-45 -58,-45 -35,0 -61,27 -64,64l0 -8c0,-31 -25,-56 -56,-56 -31,0 -56,25 -56,56l0 81 26 0 0 -81c0,-17 13,-30 30,-30 17,0 31,13 31,30l0 81 25 0 0 -63c3,37 29,64 65,64 21,0 40,-12 51,-27 8,17 24,27 43,27 23,0 45,-14 45,-42 0,-16 -9,-29 -26,-38 -3,-1 -5,-2 -6,-2l0 -1c-2,0 -4,-1 -6,-2 -12,-5 -17,-9 -17,-16 0,-7 6,-12 13,-12l51 0 0 72c0,23 19,41 41,41l0 -25c-8,0 -16,-7 -16,-16l0 -72c10,0 18,0 21,0l0 0 0 0zm0 0l0 0 0 0z"/>
  <path class="fil2" d="M545 905c0,-199 161,-360 360,-360 199,0 360,161 360,360 0,199 -161,360 -360,360 -199,0 -360,-161 -360,-360zm360 -401c-221,0 -401,180 -401,401 0,222 180,401 401,401 222,0 401,-179 401,-401 0,-221 -179,-401 -401,-401z"/>
 </g>
</svg>
