<?xml version="1.0" encoding="utf-8"?>
<!-- Generator: Adobe Illustrator 20.0.0, SVG Export Plug-In . SVG Version: 6.00 Build 0)  -->
<svg version="1.1" id="Layer_1" xmlns="http://www.w3.org/2000/svg" xmlns:xlink="http://www.w3.org/1999/xlink" x="0px" y="0px"
	 viewBox="0 0 627.9 627.9" style="enable-background:new 0 0 627.9 627.9;" xml:space="preserve">
<g>
	<path d="M580.7,47.2C550.2,16.8,509.9,0,467.1,0H160.9C118.1,0,77.7,16.8,47.2,47.2C16.8,77.7,0,118.1,0,160.9v306.2
		c0,42.8,16.8,83.1,47.3,113.6S118.1,628,160.9,628h306.2c42.8,0,83.1-16.8,113.6-47.3s47.2-70.8,47.2-113.6V160.9
		C627.9,118.1,611.1,77.7,580.7,47.2z M314,454.5c-77.5,0-140.6-63-140.6-140.5c0-77.5,63.1-140.6,140.6-140.6
		c77.5,0,140.5,63.1,140.5,140.6C454.5,391.5,391.5,454.5,314,454.5z"/>
	<path d="M313.9,193.1C247.2,193.1,193,247.3,193,314c0,66.7,54.3,120.9,121,120.9c66.7,0,120.9-54.2,120.9-120.9
		C434.9,247.3,380.6,193.1,313.9,193.1z"/>
</g>
</svg>
