<?xml version="1.0" encoding="utf-8"?>
<!-- Generator: Adobe Illustrator 20.0.0, SVG Export Plug-In . SVG Version: 6.00 Build 0)  -->
<svg version="1.1" id="Layer_1" xmlns="http://www.w3.org/2000/svg" xmlns:xlink="http://www.w3.org/1999/xlink" x="0px" y="0px"
	 viewBox="0 0 166.2 258.9" style="enable-background:new 0 0 166.2 258.9;" xml:space="preserve">
<g>
	<path d="M83.1,17.4c-28.4,0-51.5,23.1-51.5,51.5c0,28.4,23.1,51.5,51.5,51.5s51.5-23.1,51.5-51.5C134.6,40.5,111.5,17.4,83.1,17.4z
		 M83.1,95C68.7,95,57,83.3,57,68.9c0-14.4,11.7-26.1,26.1-26.1s26.1,11.7,26.1,26.1C109.2,83.3,97.5,95,83.1,95z"/>
	<path d="M118.3,246.9c-11.7-1.8-17.4-6.3-19.3-15.5v-23.3c0-1.7-7.9-3-10.4-3v-4.7H99v-18.6c0.6-8.3,1.3-16.6,2.8-24.8
		c2-10.7,9.1-19.1,16.6-26.8c2-2.1,4.1-4.1,6.1-6.2h-0.1c16.8-12.6,27.6-32.6,27.6-55.2C152,30.9,121.2,0,83.1,0
		S14.2,30.9,14.2,68.9c0,22.6,10.8,42.6,27.6,55.2h-0.1c2,2,4.1,4.1,6.1,6.2c7.5,7.8,14.6,16.1,16.6,26.8c1.5,8.1,2.3,16.5,2.8,24.8
		v18.6h10.4v4.7c-2.6,0-10.4,1.4-10.4,3v23.3c-1.9,9.2-7.6,13.6-19.3,15.5c-15.9,2.5-31.9,4.7-47.9,7c0,1.7,0,3.3,0,5
		c27.7,0,55.4,0,83.1,0s55.4,0,83.1,0c0-1.7,0-3.3,0-5C150.3,251.6,134.3,249.5,118.3,246.9z M27.4,68.9c0-30.7,25-55.8,55.8-55.8
		s55.8,25,55.8,55.8s-25,55.8-55.8,55.8S27.4,99.7,27.4,68.9z"/>
</g>
<circle cx="83.1" cy="68.9" r="8.2"/>
</svg>
