<?xml version="1.0" encoding="utf-8"?>
<!-- Generator: Adobe Illustrator 20.0.0, SVG Export Plug-In . SVG Version: 6.00 Build 0)  -->
<svg version="1.1" id="Layer_1" xmlns="http://www.w3.org/2000/svg" xmlns:xlink="http://www.w3.org/1999/xlink" x="0px" y="0px"
	 viewBox="0 0 260 260" style="enable-background:new 0 0 260 260;" xml:space="preserve">
<style type="text/css">
	.st0{stroke:#000000;stroke-miterlimit:10;}
</style>
<path class="st0" d="M130,0.5C58.5,0.5,0.5,58.5,0.5,130s58,129.5,129.5,129.5s129.5-58,129.5-129.5S201.5,0.5,130,0.5z M147,201
	c-11.6,0-22.7,0-34,0c-0.2-0.8-0.5-1.6-0.6-2.3c0-14.2-0.2-28.3,0-42.5c0.2-9.2,6.8-16,15.9-17c7.9-0.9,15.9,4.7,18.1,12.7
	c0.1,0.5,0.3,1,0.4,1.5c0.1,1.3,0.2,2.7,0.2,4C147,171.8,147,186.3,147,201z M195.3,136.4c-4.6-3.8-9.1-7.4-14.2-11.6
	c0,25.8,0,50.7,0,76c-6.7,0-13.1,0-20,0c0-14,0.1-27.7,0-41.5c0-3.3-0.2-6.7-0.9-9.9c-3.3-14.5-16.8-24.9-31.3-24.4
	c-15,0.5-28.3,11.5-30,26.4c-1.3,11.5-0.7,23.3-0.9,34.9c-0.1,4.8,0,9.6,0,14.6c-6.8,0-13,0-19.8,0c0-25.1,0-50.1,0-76.4
	c-5.2,4.2-9.5,7.8-14.4,11.7c-4.4-5.3-8.8-10.6-13.5-16.3c26.6-22,52.8-43.8,79.2-65.6C140.9,63.9,152,73.1,164,83c0,0,0,0,0,0
	l0.6,0.5v-9.3H181V97l6.3,5.2c6.9,6,14.1,11.8,21.5,17.9C204.2,125.6,199.9,130.8,195.3,136.4z"/>
</svg>
