<?xml version="1.0" encoding="utf-8"?>
<!-- Generator: Adobe Illustrator 20.0.0, SVG Export Plug-In . SVG Version: 6.00 Build 0)  -->
<svg version="1.1" id="Layer_1" xmlns="http://www.w3.org/2000/svg" xmlns:xlink="http://www.w3.org/1999/xlink" x="0px" y="0px"
	 viewBox="0 0 500 500" style="enable-background:new 0 0 500 500;" xml:space="preserve">
<g>
	<path d="M481.07,154.78c-12.67-30.55-31.23-58.05-54.28-81.08c-23.05-23.03-50.58-41.58-81.17-54.24
		C316.15,7.26,283.85,0.53,250,0.53c-33.85,0-66.15,6.73-95.62,18.93c-30.6,12.66-58.13,31.22-81.17,54.24
		c-23.05,23.03-41.62,50.53-54.28,81.08C6.73,184.2,0,216.45,0,250.26s6.73,66.06,18.93,95.48c12.67,30.55,31.23,58.05,54.28,81.08
		c23.05,23.03,50.58,41.58,81.17,54.24C183.85,493.27,216.15,500,250,500c33.85,0,66.15-6.73,95.62-18.93
		c30.6-12.66,58.13-31.22,81.17-54.24c23.05-23.03,41.62-50.53,54.28-81.08c12.2-29.42,18.93-61.67,18.93-95.48
		C500,216.45,493.27,184.2,481.07,154.78z M474.39,343.08c-12.31,29.7-30.35,56.42-52.73,78.78
		c-22.39,22.37-49.12,40.39-78.82,52.68c-28.58,11.83-59.93,18.36-92.83,18.36c-32.9,0-64.25-6.53-92.83-18.36
		c-29.7-12.29-56.44-30.31-78.82-52.68c-22.38-22.37-40.42-49.09-52.73-78.78c-11.85-28.59-18.39-59.93-18.39-92.81
		c0-32.88,6.54-64.23,18.39-92.81c12.31-29.7,30.35-56.42,52.73-78.78c22.39-22.37,49.12-40.39,78.82-52.68
		C185.75,14.16,217.1,7.63,250,7.63c32.9,0,64.25,6.53,92.83,18.36c29.7,12.29,56.44,30.31,78.82,52.68
		c22.38,22.37,40.42,49.09,52.73,78.78c11.85,28.59,18.39,59.93,18.39,92.81C492.78,283.14,486.24,314.49,474.39,343.08z"/>
	<path d="M332.14,430.35c-27.99,3.11-54.86,4.63-82.14,4.63c-27.29,0-54.15-1.51-82.14-4.63c-23.61-2.63-44.32-6-59.73-8.64
		l-0.24-0.04l0.19,0.15c19.74,15.4,41.76,27.4,65.44,35.66c24.5,8.55,50.24,12.88,76.49,12.88c26.25,0,51.98-4.33,76.49-12.88
		c23.68-8.26,45.69-20.26,65.44-35.66l0.19-0.15l-0.24,0.04C376.47,424.35,355.76,427.72,332.14,430.35z"/>
	<path d="M459.92,160.68c-5.71-13.21-12.78-25.95-21.01-37.86c-8.15-11.8-17.51-22.9-27.82-32.99
		c-10.31-10.09-21.65-19.25-33.72-27.22c-12.18-8.05-25.2-14.97-38.7-20.55C310.59,30.43,280.76,24.53,250,24.53
		s-60.59,5.89-88.68,17.52c-13.5,5.59-26.52,12.5-38.7,20.55c-12.06,7.97-23.41,17.13-33.72,27.22s-19.67,21.19-27.82,32.99
		c-8.23,11.92-15.3,24.66-21.01,37.86c-11.88,27.48-17.9,56.67-17.9,86.77c0,16.2,1.79,32.36,5.31,48.04
		c3.43,15.26,8.53,30.21,15.17,44.43c6.52,13.96,14.55,27.32,23.89,39.71c9.26,12.29,19.86,23.69,31.49,33.89l0.01,0.01l0.91,0.16
		c0.38,0.07,0.62,0.11,0.79,0.14c0.03,0.01,0.07,0.01,0.12,0.02c0.08,0.01,0.14,0.03,0.15,0.03l0-0.01
		c0.51,0.09,1.46,0.25,2.82,0.49c18.58,3.25,40.92,6.94,65.72,9.7c27.69,3.08,54.33,4.58,81.44,4.58s53.75-1.5,81.44-4.58
		c24.8-2.76,47.14-6.45,65.72-9.7c1.16-0.2,2-0.35,2.5-0.44c0,0,0,0,0,0c0.01,0,0.01,0,0.02,0l0,0c0.01,0,0.03-0.01,0.07-0.01
		c0.05-0.01,0.12-0.02,0.21-0.04l1.97-0.35l0.02,0l0.01-0.01c11.63-10.2,22.23-21.6,31.49-33.89c9.34-12.39,17.38-25.75,23.9-39.71
		c6.64-14.22,11.74-29.17,15.17-44.43c3.52-15.68,5.31-31.84,5.31-48.04C477.83,217.35,471.8,188.16,459.92,160.68z M186.88,101.25
		c19.99-8.27,41.23-12.47,63.12-12.47s43.13,4.2,63.12,12.47c19.31,7.99,36.65,19.43,51.55,34c14.89,14.57,26.59,31.54,34.75,50.43
		c8.46,19.56,12.74,40.34,12.74,61.76c0,21.42-4.29,42.2-12.74,61.76c-8.17,18.89-19.86,35.86-34.75,50.43
		c-14.89,14.57-32.23,26.01-51.55,34c-19.99,8.27-41.23,12.47-63.12,12.47s-43.13-4.19-63.12-12.47
		c-19.31-7.99-36.65-19.43-51.54-34c-14.89-14.57-26.59-31.54-34.75-50.43c-8.46-19.56-12.74-40.34-12.74-61.76
		c0-21.42,4.29-42.2,12.74-61.76c8.17-18.89,19.86-35.86,34.75-50.43C150.23,120.68,167.57,109.24,186.88,101.25z"/>
	<path d="M159.75,230.66h25.36c0-5.06,1.13-9.18,3.36-12.43c2.2-3.25,5.27-4.88,9.18-4.88c4.35,0,7.61,1.26,9.78,3.77
		c2.18,2.53,3.28,5.91,3.28,10.14c0,2.97-1.08,6.48-3.23,10.5c-2.15,4.02-5.51,8.59-10.07,13.75l-35.96,37.15v16.64h78.29v-19.66
		H196.1l-0.24-0.46l15.13-15.92c9.84-10.53,16.6-18.47,20.25-23.81c3.67-5.34,5.51-11.48,5.51-18.42c0-10.34-3.46-18.47-10.33-24.4
		c-6.9-5.96-16.5-8.93-28.77-8.93c-11.59,0-20.88,3.53-27.91,10.63c-7,7.07-10.39,15.68-10.15,25.87L159.75,230.66z"/>
	<path d="M291.38,306.84c11.88,0,21.35-3.79,28.35-11.38c7.03-7.56,10.54-18.78,10.54-33.64v-23.11c0-14.81-3.54-26-10.57-33.61
		c-7.06-7.61-16.55-11.4-28.48-11.4c-11.99,0-21.45,3.79-28.43,11.38c-6.95,7.56-10.44,18.78-10.44,33.64v23.11
		c0,14.86,3.51,26.08,10.52,33.64C269.9,303.04,279.39,306.84,291.38,306.84z M278.24,236.98c0-8.41,1.1-14.45,3.28-18.11
		c2.18-3.69,5.4-5.52,9.7-5.52c4.27,0,7.53,1.83,9.76,5.52c2.26,3.66,3.38,9.7,3.38,18.11v26.42c0,8.56-1.1,14.65-3.3,18.32
		c-2.2,3.64-5.43,5.47-9.68,5.47c-4.35,0-7.63-1.83-9.83-5.47c-2.2-3.66-3.3-9.75-3.3-18.32V236.98z"/>
</g>
</svg>
