<?xml version="1.0" encoding="utf-8"?>
<!-- Generator: Adobe Illustrator 17.0.0, SVG Export Plug-In . SVG Version: 6.00 Build 0)  -->
<!DOCTYPE svg PUBLIC "-//W3C//DTD SVG 1.1//EN" "http://www.w3.org/Graphics/SVG/1.1/DTD/svg11.dtd" [
	<!ENTITY ns_extend "http://ns.adobe.com/Extensibility/1.0/">
	<!ENTITY ns_ai "http://ns.adobe.com/AdobeIllustrator/10.0/">
	<!ENTITY ns_graphs "http://ns.adobe.com/Graphs/1.0/">
	<!ENTITY ns_vars "http://ns.adobe.com/Variables/1.0/">
	<!ENTITY ns_imrep "http://ns.adobe.com/ImageReplacement/1.0/">
	<!ENTITY ns_sfw "http://ns.adobe.com/SaveForWeb/1.0/">
	<!ENTITY ns_custom "http://ns.adobe.com/GenericCustomNamespace/1.0/">
	<!ENTITY ns_adobe_xpath "http://ns.adobe.com/XPath/1.0/">
]>
<svg version="1.1" id="Layer_1" xmlns:x="&ns_extend;" xmlns:i="&ns_ai;" xmlns:graph="&ns_graphs;"
	 xmlns="http://www.w3.org/2000/svg" xmlns:xlink="http://www.w3.org/1999/xlink" x="0px" y="0px" width="306.548px"
	 height="311.379px" viewBox="0 0 306.548 311.379" style="enable-background:new 0 0 306.548 311.379;" xml:space="preserve">
<metadata>
	<sfw  xmlns="&ns_sfw;">
		<slices></slices>
		<sliceSourceBounds  height="1346.235" width="1506.378" bottomLeftOrigin="true" y="0" x="-773.316"></sliceSourceBounds>
		<optimizationSettings></optimizationSettings>
	</sfw>
</metadata>
<path style="fill:#2B2A29;" d="M260.65,46.597C233.171,18.683,195.208,1.417,153.274,1.417c-41.934,0-79.897,17.266-107.376,45.179
	c-27.482,27.917-44.48,66.487-44.48,109.092c0,42.605,16.999,81.176,44.48,109.093c27.479,27.914,65.442,45.179,107.376,45.179
	c41.934,0,79.897-17.266,107.376-45.179c27.482-27.917,44.48-66.487,44.48-109.093C305.13,113.084,288.132,74.514,260.65,46.597
	 M153.274,0c42.326,0,80.645,17.428,108.384,45.606c27.735,28.174,44.89,67.095,44.89,110.083c0,42.988-17.155,81.909-44.89,110.083
	c-27.739,28.177-66.058,45.606-108.384,45.606c-42.326,0-80.645-17.428-108.383-45.606C17.155,237.598,0,198.677,0,155.689
	C0,112.701,17.155,73.78,44.89,45.606C72.629,17.428,110.948,0,153.274,0z"/>
<path style="fill-rule:evenodd;clip-rule:evenodd;" d="M166.496,35.423L166.496,35.423z M166.496,35.423v-1.968h-1.628v-2.309H162.9
	v2.309h-4.013c-1.855,0-3.18,1.249-3.18,2.99c0,0.152,0,0.379,0.038,0.568c-0.643-2.195-2.271-3.558-4.505-3.558
	c-2.726,0-4.808,2.158-4.997,5.035v-0.643c0-2.423-1.969-4.391-4.392-4.391c-2.423,0-4.391,1.968-4.391,4.391v6.322h2.006v-6.322
	c0-1.287,1.06-2.347,2.385-2.347c1.325,0,2.385,1.06,2.385,2.347v6.322h2.007v-4.921c0.189,2.915,2.271,5.035,5.035,5.035
	c1.703,0,3.18-0.984,4.013-2.12c0.643,1.325,1.893,2.12,3.407,2.12c1.741,0,3.521-1.135,3.521-3.294
	c0-1.287-0.757-2.309-2.082-2.953c-0.189-0.076-0.341-0.151-0.454-0.189l-0.038-0.038c-0.151-0.038-0.303-0.114-0.454-0.189
	c-0.909-0.417-1.325-0.719-1.325-1.288c0-0.492,0.454-0.908,1.022-0.908h4.013v5.603c0,1.817,1.438,3.256,3.218,3.256v-2.006
	c-0.681,0-1.249-0.53-1.249-1.249v-5.603C165.664,35.423,166.269,35.423,166.496,35.423z M151.202,35.423
	c1.552,0,2.347,1.06,2.536,2.158h-5.186C148.855,36.483,149.801,35.423,151.202,35.423z M159.152,39.966
	c0.568,0.265,0.909,0.681,0.909,1.211c0,0.681-0.53,1.098-1.401,1.098c-0.946,0-1.363-0.833-1.477-1.098l-0.151-0.303h-1.741h-1.59
	c-0.454,0.757-1.363,1.401-2.385,1.401c-1.855,0-2.801-1.439-2.915-2.877h7.609v-0.303c0-0.606-0.038-1.174-0.151-1.704
	c0.189,0.682,0.719,1.363,1.741,1.855C157.979,39.436,158.546,39.701,159.152,39.966z M153.274,71.831
	c44.702,0,80.94,36.601,80.94,81.75c0,45.149-36.238,81.75-80.94,81.75s-80.94-36.601-80.94-81.75
	C72.334,108.431,108.572,71.831,153.274,71.831z M261.998,243.276c-25.868,31.108-64.969,50.93-108.725,50.93
	c-43.75,0-82.846-19.818-108.715-50.919c11.278-0.512,25.113-0.646,37.685-0.549c16.129,0.124,30.177,0.629,34.064,1.201
	c2.295,0.338,4.689,0.779,7.259,1.251c7.81,1.437,17.24,3.172,29.841,3.176c12.601-0.003,22.031-1.738,29.841-3.176
	c2.57-0.473,4.964-0.914,7.259-1.251c3.887-0.573,17.935-1.077,34.064-1.201C237.048,242.642,250.768,242.773,261.998,243.276z
	 M153.274,13.625c77.891,0,141.034,62.81,141.034,140.291c0,33.703-11.951,64.626-31.862,88.815
	c-11.31-0.519-25.23-0.654-37.874-0.557c-16.16,0.125-30.241,0.631-34.144,1.206c-2.271,0.334-4.686,0.779-7.279,1.256
	c-7.787,1.433-17.191,3.164-29.739,3.167c-12.548-0.003-21.952-1.734-29.739-3.167c-2.593-0.477-5.008-0.922-7.279-1.256
	c-3.903-0.575-17.984-1.081-34.144-1.206c-12.742-0.098-26.778,0.04-38.134,0.569c-19.917-24.191-31.872-55.119-31.872-88.827
	C12.24,76.435,75.383,13.625,153.274,13.625z"/>
<rect x="74.525" y="152.464" width="14.25" height="0.567"/>
<rect x="74.568" y="149.965" transform="matrix(-0.9994 -0.0349 0.0349 -0.9994 158.0947 303.254)" width="14.25" height="0.565"/>
<rect x="74.699" y="147.468" transform="matrix(-0.9976 -0.0698 0.0698 -0.9976 153.1422 300.8499)" width="14.25" height="0.566"/>
<rect x="74.917" y="144.978" transform="matrix(-0.9945 -0.1045 0.1045 -0.9945 148.4493 298.3014)" width="14.25" height="0.565"/>
<rect x="75.222" y="142.496" transform="matrix(-0.9903 -0.1392 0.1392 -0.9903 144.0185 295.6302)" width="14.249" height="0.566"/>
<rect x="75.613" y="140.027" transform="matrix(-0.9848 -0.1737 0.1737 -0.9848 139.8538 292.8553)" width="14.25" height="0.566"/>
<rect x="76.09" y="137.573" transform="matrix(-0.9781 -0.2079 0.2079 -0.9781 135.9472 290.0011)" width="14.25" height="0.566"/>
<rect x="76.652" y="135.137" transform="matrix(-0.9703 -0.2419 0.2419 -0.9703 132.3059 287.0841)" width="14.25" height="0.566"/>
<rect x="77.3" y="132.722" transform="matrix(-0.9613 -0.2756 0.2756 -0.9613 128.9154 284.1284)" width="14.25" height="0.566"/>
<rect x="78.03" y="130.331" transform="matrix(-0.9511 -0.309 0.309 -0.9511 125.7797 281.1503)" width="14.25" height="0.566"/>
<rect x="78.844" y="127.967" transform="matrix(-0.9397 -0.342 0.342 -0.9397 122.8895 278.1692)" width="14.25" height="0.566"/>
<rect x="79.74" y="125.633" transform="matrix(-0.9272 -0.3746 0.3746 -0.9272 120.2383 275.2036)" width="14.25" height="0.566"/>
<rect x="80.717" y="123.333" transform="matrix(-0.9135 -0.4067 0.4067 -0.9135 117.8098 272.2717)" width="14.25" height="0.565"/>
<rect x="81.774" y="121.066" transform="matrix(-0.8988 -0.4384 0.4384 -0.8988 115.6056 269.3875)" width="14.25" height="0.566"/>
<rect x="82.909" y="118.838" transform="matrix(-0.883 -0.4695 0.4695 -0.883 113.6054 266.5681)" width="14.25" height="0.567"/>
<rect x="84.12" y="116.652" transform="matrix(-0.866 -0.5 0.5 -0.866 111.7989 263.8264)" width="14.25" height="0.565"/>
<rect x="85.408" y="114.509" transform="matrix(-0.848 -0.5299 0.5299 -0.848 110.1754 261.1767)" width="14.25" height="0.566"/>
<rect x="86.77" y="112.412" transform="matrix(-0.829 -0.5592 0.5592 -0.829 108.7181 258.6297)" width="14.25" height="0.566"/>
<rect x="88.204" y="110.364" transform="matrix(-0.809 -0.5878 0.5878 -0.809 107.4132 256.1963)" width="14.25" height="0.566"/>
<rect x="89.709" y="108.369" transform="matrix(-0.788 -0.6157 0.6157 -0.788 106.2469 253.8857)" width="14.25" height="0.565"/>
<rect x="91.282" y="106.425" transform="matrix(-0.766 -0.6428 0.6428 -0.766 105.1999 251.7061)" width="14.25" height="0.566"/>
<rect x="92.922" y="104.538" transform="matrix(-0.7431 -0.6691 0.6691 -0.7431 104.2552 249.6631)" width="14.25" height="0.566"/>
<rect x="94.627" y="102.71" transform="matrix(-0.7193 -0.6947 0.6947 -0.7193 103.4021 247.7625)" width="14.25" height="0.565"/>
<rect x="96.395" y="100.942" transform="matrix(-0.6947 -0.7193 0.7193 -0.6947 102.6144 246.0077)" width="14.25" height="0.565"/>
<rect x="98.223" y="99.237" transform="matrix(-0.6691 -0.7431 0.7431 -0.6691 101.882 244.4011)" width="14.25" height="0.566"/>
<rect x="100.11" y="97.597" transform="matrix(-0.6428 -0.766 0.766 -0.6428 101.1835 242.9425)" width="14.25" height="0.566"/>
<rect x="102.053" y="96.024" transform="matrix(-0.6157 -0.788 0.788 -0.6157 100.5037 241.6323)" width="14.25" height="0.565"/>
<rect x="104.049" y="94.519" transform="matrix(-0.5878 -0.809 0.809 -0.5878 99.825 240.4671)" width="14.25" height="0.566"/>
<rect x="106.097" y="93.085" transform="matrix(-0.5592 -0.829 0.829 -0.5592 99.1299 239.4444)" width="14.25" height="0.566"/>
<rect x="108.194" y="91.724" transform="matrix(-0.5299 -0.848 0.848 -0.5299 98.4033 238.5587)" width="14.25" height="0.566"/>
<rect x="110.337" y="90.436" transform="matrix(-0.5 -0.866 0.866 -0.5 97.6285 237.8031)" width="14.25" height="0.566"/>
<rect x="112.523" y="89.223" transform="matrix(-0.4695 -0.883 0.883 -0.4695 96.7891 237.1709)" width="14.25" height="0.567"/>
<rect x="114.751" y="88.089" transform="matrix(-0.4384 -0.8988 0.8988 -0.4384 95.8737 236.6526)" width="14.25" height="0.567"/>
<rect x="117.017" y="87.033" transform="matrix(-0.4067 -0.9135 0.9135 -0.4067 94.8687 236.2389)" width="14.25" height="0.565"/>
<rect x="119.318" y="86.056" transform="matrix(-0.3746 -0.9272 0.9272 -0.3746 93.7555 235.9169)" width="14.25" height="0.566"/>
<rect x="121.652" y="85.16" transform="matrix(-0.342 -0.9397 0.9397 -0.342 92.5307 235.6759)" width="14.25" height="0.566"/>
<rect x="124.016" y="84.346" transform="matrix(-0.309 -0.9511 0.9511 -0.309 91.1795 235.5028)" width="14.25" height="0.566"/>
<rect x="126.407" y="83.615" transform="matrix(-0.2756 -0.9613 0.9613 -0.2756 89.692 235.3823)" width="14.25" height="0.566"/>
<rect x="128.821" y="82.968" transform="matrix(-0.2419 -0.9703 0.9703 -0.2419 88.0554 235.2982)" width="14.25" height="0.566"/>
<rect x="131.258" y="82.405" transform="matrix(-0.2079 -0.9781 0.9781 -0.2079 86.2722 235.2384)" width="14.25" height="0.566"/>
<rect x="133.712" y="81.928" transform="matrix(-0.1736 -0.9848 0.9848 -0.1736 84.3289 235.1833)" width="14.25" height="0.566"/>
<rect x="136.181" y="81.537" transform="matrix(-0.1392 -0.9903 0.9903 -0.1392 82.2288 235.1193)" width="14.25" height="0.565"/>
<rect x="138.662" y="81.233" transform="matrix(-0.1045 -0.9945 0.9945 -0.1045 79.9586 235.0251)" width="14.25" height="0.565"/>
<rect x="141.153" y="81.015" transform="matrix(-0.0698 -0.9976 0.9976 -0.0698 77.5228 234.8857)" width="14.25" height="0.566"/>
<rect x="143.649" y="80.884" transform="matrix(-0.0349 -0.9994 0.9994 -0.0349 74.9176 234.6812)" width="14.25" height="0.565"/>
<rect x="152.99" y="73.998" width="0.567" height="14.25"/>
<rect x="148.648" y="80.884" transform="matrix(0.0349 -0.9994 0.9994 0.0349 69.2211 234.0134)" width="14.25" height="0.565"/>
<rect x="151.145" y="81.015" transform="matrix(0.0698 -0.9976 0.9976 0.0698 66.1293 233.5106)" width="14.25" height="0.566"/>
<rect x="153.636" y="81.233" transform="matrix(0.1045 -0.9945 0.9945 0.1045 62.8863 232.8737)" width="14.25" height="0.565"/>
<rect x="156.117" y="81.537" transform="matrix(0.1392 -0.9903 0.9903 0.1392 59.4967 232.0845)" width="14.25" height="0.565"/>
<rect x="158.586" y="81.928" transform="matrix(0.1736 -0.9848 0.9848 0.1736 55.9737 231.1292)" width="14.25" height="0.566"/>
<rect x="161.04" y="82.405" transform="matrix(0.2079 -0.9781 0.9781 0.2079 52.3191 229.9858)" width="14.25" height="0.566"/>
<rect x="163.476" y="82.968" transform="matrix(0.2419 -0.9703 0.9703 0.2419 48.5528 228.6453)" width="14.25" height="0.566"/>
<rect x="165.891" y="83.615" transform="matrix(0.2757 -0.9613 0.9613 0.2757 44.6764 227.084)" width="14.25" height="0.566"/>
<rect x="168.282" y="84.346" transform="matrix(0.309 -0.9511 0.9511 0.309 40.7157 225.298)" width="14.25" height="0.566"/>
<rect x="170.646" y="85.16" transform="matrix(0.342 -0.9397 0.9397 0.342 36.6804 223.2698)" width="14.25" height="0.566"/>
<rect x="172.98" y="86.056" transform="matrix(0.3746 -0.9272 0.9272 0.3746 32.5866 220.9878)" width="14.25" height="0.566"/>
<rect x="175.281" y="87.033" transform="matrix(0.4067 -0.9135 0.9135 0.4067 28.4473 218.436)" width="14.25" height="0.565"/>
<rect x="177.547" y="88.089" transform="matrix(0.4384 -0.8988 0.8988 0.4384 24.2898 215.6152)" width="14.25" height="0.566"/>
<rect x="179.774" y="89.223" transform="matrix(0.4695 -0.883 0.883 0.4695 20.1272 212.5105)" width="14.25" height="0.567"/>
<rect x="181.961" y="90.436" transform="matrix(0.5 -0.866 0.866 0.5 15.9785 209.113)" width="14.25" height="0.565"/>
<rect x="184.104" y="91.724" transform="matrix(0.5299 -0.848 0.848 0.5299 11.8665 205.421)" width="14.25" height="0.566"/>
<rect x="186.201" y="93.085" transform="matrix(0.5592 -0.829 0.829 0.5592 7.8127 201.43)" width="14.25" height="0.566"/>
<rect x="188.249" y="94.519" transform="matrix(0.5878 -0.809 0.809 0.5878 3.8395 197.1395)" width="14.25" height="0.566"/>
<rect x="190.245" y="96.024" transform="matrix(0.6157 -0.788 0.788 0.6157 -0.0329 192.5459)" width="14.25" height="0.565"/>
<rect x="192.188" y="97.597" transform="matrix(0.6428 -0.766 0.766 0.6428 -3.7832 187.6466)" width="14.25" height="0.566"/>
<rect x="194.075" y="99.237" transform="matrix(0.6691 -0.7431 0.7431 0.6691 -7.3877 182.4474)" width="14.25" height="0.566"/>
<rect x="195.903" y="100.942" transform="matrix(0.6947 -0.7193 0.7193 0.6947 -10.8221 176.9549)" width="14.25" height="0.565"/>
<rect x="197.671" y="102.71" transform="matrix(0.7193 -0.6947 0.6947 0.7193 -14.0674 171.1674)" width="14.25" height="0.565"/>
<rect x="199.376" y="104.538" transform="matrix(0.7431 -0.6691 0.6691 0.7431 -17.0976 165.1027)" width="14.25" height="0.566"/>
<rect x="201.016" y="106.425" transform="matrix(0.766 -0.6428 0.6428 0.766 -19.8952 158.7545)" width="14.25" height="0.566"/>
<rect x="202.589" y="108.369" transform="matrix(0.788 -0.6157 0.6157 0.788 -22.435 152.1463)" width="14.25" height="0.565"/>
<rect x="204.094" y="110.364" transform="matrix(0.809 -0.5878 0.5878 0.809 -24.6975 145.2849)" width="14.25" height="0.566"/>
<rect x="205.528" y="112.412" transform="matrix(0.829 -0.5592 0.5592 0.829 -26.6628 138.1814)" width="14.25" height="0.566"/>
<rect x="206.89" y="114.509" transform="matrix(0.848 -0.5299 0.5299 0.848 -28.3107 130.8529)" width="14.25" height="0.566"/>
<rect x="208.177" y="116.653" transform="matrix(0.866 -0.5 0.5 0.866 -29.6226 123.3176)" width="14.25" height="0.565"/>
<rect x="209.389" y="118.838" transform="matrix(0.883 -0.4695 0.4695 0.883 -30.5808 115.5873)" width="14.25" height="0.567"/>
<rect x="210.524" y="121.066" transform="matrix(0.8988 -0.4384 0.4384 0.8988 -31.1685 107.6916)" width="14.25" height="0.566"/>
<rect x="211.581" y="123.333" transform="matrix(0.9135 -0.4067 0.4067 0.9135 -31.3708 99.6445)" width="14.25" height="0.565"/>
<rect x="212.558" y="125.633" transform="matrix(0.9272 -0.3746 0.3746 0.9272 -31.1724 91.4617)" width="14.25" height="0.566"/>
<rect x="213.454" y="127.968" transform="matrix(0.9397 -0.342 0.342 0.9397 -30.5613 83.1744)" width="14.25" height="0.566"/>
<rect x="214.267" y="130.331" transform="matrix(0.9511 -0.309 0.309 0.9511 -29.527 74.8103)" width="14.25" height="0.566"/>
<rect x="214.999" y="132.722" transform="matrix(0.9613 -0.2756 0.2756 0.9613 -28.057 66.38)" width="14.25" height="0.566"/>
<rect x="215.646" y="135.137" transform="matrix(0.9703 -0.2419 0.2419 0.9703 -26.1426 57.9119)" width="14.25" height="0.566"/>
<rect x="216.208" y="137.573" transform="matrix(0.9781 -0.2079 0.2079 0.9781 -23.7821 49.4478)" width="14.25" height="0.566"/>
<rect x="216.685" y="140.027" transform="matrix(0.9848 -0.1736 0.1736 0.9848 -20.9631 40.9926)" width="14.25" height="0.566"/>
<rect x="217.076" y="142.496" transform="matrix(0.9903 -0.1392 0.1392 0.9903 -17.6909 32.5963)" width="14.25" height="0.566"/>
<rect x="217.381" y="144.978" transform="matrix(0.9945 -0.1045 0.1045 0.9945 -13.9541 24.2633)" width="14.25" height="0.565"/>
<rect x="217.599" y="147.468" transform="matrix(0.9976 -0.0698 0.0698 0.9976 -9.7593 16.0361)" width="14.25" height="0.566"/>
<rect x="217.729" y="149.965" transform="matrix(0.9994 -0.0349 0.0349 0.9994 -5.1054 7.9369)" width="14.25" height="0.565"/>
<rect x="217.773" y="152.464" width="14.25" height="0.567"/>
<rect x="217.729" y="154.964" transform="matrix(0.9994 0.0349 -0.0349 0.9994 5.5536 -7.7508)" width="14.25" height="0.565"/>
<rect x="217.599" y="157.46" transform="matrix(0.9976 0.0698 -0.0698 0.9976 11.5527 -15.2937)" width="14.25" height="0.566"/>
<rect x="217.381" y="159.951" transform="matrix(0.9945 0.1045 -0.1045 0.9945 17.9791 -22.5897)" width="14.25" height="0.565"/>
<rect x="217.076" y="162.433" transform="matrix(0.9903 0.1392 -0.1392 0.9903 24.8309 -29.6228)" width="14.249" height="0.566"/>
<rect x="216.685" y="164.901" transform="matrix(0.9848 0.1736 -0.1736 0.9848 32.0832 -36.3537)" width="14.25" height="0.566"/>
<rect x="216.208" y="167.356" transform="matrix(0.9781 0.2079 -0.2079 0.9781 39.734 -42.7698)" width="14.25" height="0.566"/>
<rect x="215.646" y="169.792" transform="matrix(0.9703 0.2419 -0.2419 0.9703 47.7591 -48.8387)" width="14.25" height="0.566"/>
<rect x="214.999" y="172.206" transform="matrix(0.9613 0.2757 -0.2757 0.9613 56.1533 -54.5465)" width="14.25" height="0.566"/>
<rect x="214.267" y="174.597" transform="matrix(0.9511 0.309 -0.309 0.9511 64.8804 -59.8572)" width="14.25" height="0.566"/>
<rect x="213.454" y="176.961" transform="matrix(0.9397 0.342 -0.342 0.9397 73.9233 -64.753)" width="14.25" height="0.566"/>
<rect x="212.558" y="179.295" transform="matrix(0.9272 0.3746 -0.3746 0.9272 83.2641 -69.2164)" width="14.25" height="0.566"/>
<rect x="211.581" y="181.597" transform="matrix(0.9135 0.4067 -0.4067 0.9135 92.8869 -73.2322)" width="14.25" height="0.565"/>
<rect x="210.524" y="183.862" transform="matrix(0.8988 0.4384 -0.4384 0.8988 102.7485 -76.7733)" width="14.25" height="0.566"/>
<rect x="209.389" y="186.089" transform="matrix(0.883 0.4695 -0.4695 0.883 112.8364 -79.8305)" width="14.25" height="0.567"/>
<rect x="208.177" y="188.277" transform="matrix(0.866 0.5 -0.5 0.866 123.1243 -82.3888)" width="14.25" height="0.565"/>
<rect x="206.89" y="190.419" transform="matrix(0.848 0.5299 -0.5299 0.848 133.5781 -84.4333)" width="14.25" height="0.566"/>
<rect x="205.528" y="192.516" transform="matrix(0.829 0.5592 -0.5592 0.829 144.1695 -85.9531)" width="14.25" height="0.566"/>
<rect x="204.094" y="194.564" transform="matrix(0.809 0.5878 -0.5878 0.809 154.8679 -86.9391)" width="14.25" height="0.566"/>
<rect x="202.59" y="196.561" transform="matrix(0.788 0.6157 -0.6157 0.788 165.6438 -87.384)" width="14.25" height="0.565"/>
<rect x="201.016" y="198.503" transform="matrix(0.766 0.6428 -0.6428 0.766 176.4719 -87.2832)" width="14.25" height="0.566"/>
<rect x="199.376" y="200.39" transform="matrix(0.7431 0.6691 -0.6691 0.7431 187.3201 -86.6323)" width="14.25" height="0.566"/>
<rect x="197.671" y="202.219" transform="matrix(0.7193 0.6947 -0.6947 0.7193 198.1467 -85.4291)" width="14.25" height="0.565"/>
<rect x="195.903" y="203.987" transform="matrix(0.6947 0.7193 -0.7193 0.6947 208.9326 -83.6743)" width="14.25" height="0.565"/>
<rect x="194.075" y="205.691" transform="matrix(0.6691 0.7431 -0.7431 0.6691 219.635 -81.3703)" width="14.25" height="0.566"/>
<rect x="192.188" y="207.331" transform="matrix(0.6428 0.766 -0.766 0.6428 230.2395 -78.52)" width="14.25" height="0.566"/>
<rect x="98.223" y="205.691" transform="matrix(-0.6691 0.7431 -0.7431 -0.6691 328.9071 265.5125)" width="14.25" height="0.566"/>
<rect x="96.395" y="203.987" transform="matrix(-0.6947 0.7193 -0.7193 -0.6947 322.3697 271.6998)" width="14.25" height="0.565"/>
<rect x="94.627" y="202.219" transform="matrix(-0.7193 0.6947 -0.6947 -0.7193 315.615 277.4866)" width="14.25" height="0.565"/>
<rect x="92.922" y="200.39" transform="matrix(-0.7431 0.6691 -0.6691 -0.7431 308.6737 282.8553)" width="14.25" height="0.566"/>
<rect x="91.282" y="198.503" transform="matrix(-0.766 0.6428 -0.6428 -0.766 301.5674 287.8117)" width="14.25" height="0.566"/>
<rect x="89.709" y="196.561" transform="matrix(-0.788 0.6157 -0.6157 -0.788 294.3279 292.3417)" width="14.25" height="0.565"/>
<rect x="88.204" y="194.564" transform="matrix(-0.809 0.5878 -0.5878 -0.809 286.9793 296.4481)" width="14.25" height="0.566"/>
<rect x="86.77" y="192.516" transform="matrix(-0.829 0.5592 -0.5592 -0.829 279.5491 300.1305)" width="14.25" height="0.566"/>
<rect x="85.408" y="190.419" transform="matrix(-0.848 0.5299 -0.5299 -0.848 272.0626 303.3916)" width="14.25" height="0.566"/>
<rect x="84.121" y="188.276" transform="matrix(-0.866 0.5 -0.5 -0.866 264.5462 306.2328)" width="14.25" height="0.565"/>
<rect x="82.909" y="186.089" transform="matrix(-0.8829 0.4695 -0.4695 -0.8829 257.0247 308.6622)" width="14.25" height="0.567"/>
<rect x="81.774" y="183.862" transform="matrix(-0.8988 0.4384 -0.4384 -0.8988 249.5215 310.6862)" width="14.25" height="0.566"/>
<rect x="80.717" y="181.597" transform="matrix(-0.9135 0.4067 -0.4067 -0.9135 242.0678 312.3043)" width="14.25" height="0.565"/>
<rect x="79.74" y="179.295" transform="matrix(-0.9272 0.3746 -0.3746 -0.9272 234.6742 313.5421)" width="14.25" height="0.566"/>
<rect x="78.844" y="176.961" transform="matrix(-0.9397 0.342 -0.342 -0.9397 227.3736 314.3969)" width="14.25" height="0.566"/>
<rect x="78.03" y="174.597" transform="matrix(-0.9511 0.309 -0.309 -0.9511 220.1846 314.8857)" width="14.25" height="0.566"/>
<rect x="77.299" y="172.206" transform="matrix(-0.9613 0.2757 -0.2757 -0.9613 213.1251 315.0243)" width="14.25" height="0.566"/>
<rect x="76.652" y="169.792" transform="matrix(-0.9703 0.2419 -0.2419 -0.9703 206.2099 314.8307)" width="14.25" height="0.566"/>
<rect x="76.09" y="167.356" transform="matrix(-0.9781 0.2079 -0.2079 -0.9781 199.4664 314.3118)" width="14.25" height="0.566"/>
<rect x="75.613" y="164.901" transform="matrix(-0.9848 0.1736 -0.1736 -0.9848 192.901 313.4937)" width="14.25" height="0.566"/>
<rect x="75.222" y="162.433" transform="matrix(-0.9903 0.1392 -0.1392 -0.9903 186.5402 312.3849)" width="14.25" height="0.566"/>
<rect x="74.917" y="159.951" transform="matrix(-0.9945 0.1045 -0.1045 -0.9945 180.3851 311.0133)" width="14.25" height="0.565"/>
<rect x="74.699" y="157.46" transform="matrix(-0.9976 0.0698 -0.0698 -0.9976 174.4541 309.3939)" width="14.25" height="0.566"/>
<rect x="74.568" y="154.964" transform="matrix(-0.9994 0.0349 -0.0349 -0.9994 168.7537 307.5488)" width="14.25" height="0.565"/>
</svg>
